<!--?xml version="1.0" standalone="no"?-->
              <svg id="sw-js-blob-svg" viewBox="0 0 100 100" xmlns="http://www.w3.org/2000/svg" version="1.1">
                    <defs> 
                        <linearGradient id="sw-gradient" x1="0" x2="1" y1="1" y2="0">
                            <stop id="stop1" stop-color="rgba(6, 130, 255, 1)" offset="0%"></stop>
                            <stop id="stop2" stop-color="rgba(181, 230, 255, 1)" offset="100%"></stop>
                        </linearGradient>
                    </defs>
                <path fill="url(#sw-gradient)" d="M24,-28.1C31.9,-27.4,39.4,-21.3,39.3,-14.5C39.3,-7.6,31.5,0.1,27.8,8.2C24,16.3,24.1,24.8,20.1,31.5C16.1,38.3,8.1,43.2,-0.4,43.8C-9,44.4,-17.9,40.7,-23.1,34.4C-28.3,28,-29.7,19.1,-28.3,11.9C-27,4.7,-22.9,-0.7,-20.5,-6.2C-18.1,-11.7,-17.3,-17.3,-14.2,-19.5C-11.1,-21.7,-5.5,-20.6,1.3,-22.4C8.1,-24.1,16.2,-28.8,24,-28.1Z" width="100%" height="100%" transform="translate(50 50)" stroke-width="0" style="transition: all 0.3s ease 0s;" stroke="url(#sw-gradient)"></path>
              </svg>